# xmcd
#
# Track frame offsets: 
#        150
#        16037
#        32763
#        56131
#        70587
#        91592
#        112685
#        130164
#        154742
#        175007
#
# Disc length: 2658 seconds
#
# Revision: 0
# Processed by: cddbd v1.5.2PL0 Copyright (c) Steve Scherf et al.
# Submitted via: ExactAudioCopyFreeDBPlugin 1.0
#
DISCID=6a0a600a
DTITLE=Tonya Graves - Back to blues
DYEAR=2015
DGENRE=Blues
TTITLE0=Thrill is gone
TTITLE1=Hound dog
TTITLE2=May this be love
TTITLE3=Something's got a hold on me
TTITLE4=If you love me baby
TTITLE5=Don't let the sun catch you cryin'
TTITLE6=Blues in the night
TTITLE7=I just wanna make love to you
TTITLE8=Jolene
TTITLE9=Meaning of the blues
EXTD=
EXTT0=
EXTT1=
EXTT2=
EXTT3=
EXTT4=
EXTT5=
EXTT6=
EXTT7=
EXTT8=
EXTT9=
PLAYORDER=
